<svg width="482" height="634" viewBox="0 0 482 634" fill="none" xmlns="http://www.w3.org/2000/svg">
<path d="M417.558 471.958C412.851 478.889 408.702 485.67 404.84 493.065C402.706 491.611 400.547 490.188 398.361 488.803C398.384 488.771 398.408 488.747 398.428 488.714C399.626 486.746 400.823 484.778 402.02 482.811C403.153 480.947 403.436 478.899 403.81 476.806C403.831 476.679 403.694 476.519 403.562 476.616C402.132 477.685 400.361 478.7 399.378 480.268C398 482.462 396.621 484.658 395.244 486.855C395.242 486.856 395.242 486.859 395.241 486.862C392.829 485.378 390.395 483.927 387.948 482.507C389.388 480.614 390.83 478.723 392.272 476.831C393.015 475.856 393.757 474.881 394.5 473.906C395.212 472.972 395.473 471.645 396.165 470.652C396.237 470.549 396.071 470.42 395.989 470.517C395.188 471.461 394.237 472.197 393.269 472.957C392.405 473.636 391.689 474.99 391.012 475.86C389.507 477.796 388.002 479.731 386.497 481.665C386.497 481.666 386.497 481.666 386.497 481.666C385.404 481.037 384.308 480.414 383.21 479.795C386.79 473.815 390.574 467.983 394.581 462.279C395.053 461.606 395.551 460.947 396.033 460.279C401.45 464.452 406.914 469.836 413.309 472.416C413.409 472.46 413.538 472.306 413.466 472.211C409.346 466.67 402.737 462.742 397.327 458.548C397.317 458.541 397.308 458.54 397.299 458.534C397.847 457.792 398.401 457.056 398.959 456.323C399 456.347 399.033 456.376 399.078 456.397C401.334 457.494 403.401 458.903 405.627 460.032C406.628 460.538 407.644 460.96 408.66 461.394C409.89 461.909 410.92 462.995 412.093 463.642C412.236 463.721 412.408 463.56 412.322 463.414C409.489 459.086 405.512 456.06 401 453.693C401.264 453.361 401.515 453.018 401.781 452.688C405.24 448.385 410.476 449.138 415.154 450.154C428.373 453.037 422.507 464.676 417.558 471.958V471.958ZM394.706 514.718C392.576 513.31 390.418 511.935 388.268 510.557C383.459 507.472 377.822 503.485 372.047 501.092C369.976 499.47 367.249 499.035 364.672 498.235C362.774 497.644 359.527 497.38 358.674 495.322C358.035 493.778 357.624 492.139 357.349 490.488C357.338 480.804 354.521 470.437 352.976 460.923C351.026 448.916 349.407 436.857 347.257 424.888C342.951 400.924 338.65 376.959 334.699 352.934C326.729 304.461 317.866 256.182 308.069 208.043C307.965 207.532 307.777 207.115 307.528 206.781C310.783 201.905 313.713 196.7 316.459 191.407C316.733 195.252 317.007 199.097 317.282 202.942C317.744 209.422 319.434 215.448 320.08 221.846C320.106 222.097 320.491 222.109 320.482 221.846C320.322 216.393 321.296 211.137 320.97 205.643C320.597 199.341 320.222 193.041 319.849 186.739C319.82 186.273 319.652 185.901 319.406 185.617C320.093 184.243 320.771 182.877 321.446 181.513C321.791 184.082 322.099 186.654 322.348 189.239C322.747 193.407 322.614 197.362 324.033 201.338C324.116 201.567 324.445 201.587 324.519 201.338C326.708 194.036 324.853 185.064 323.512 177.355C323.934 176.506 324.358 175.649 324.78 174.811C326.775 170.851 328.685 166.847 330.552 162.824C330.715 164.174 330.878 165.526 331.04 166.877C331.367 169.599 332.15 171.519 333.09 174.102C333.209 174.431 333.648 174.362 333.682 174.022C333.939 171.434 334.269 169.471 333.932 166.877C333.573 164.097 333.213 161.319 332.852 158.54C332.831 158.37 332.766 158.231 332.702 158.094C334.616 153.845 336.483 149.575 338.276 145.274C347.866 236.405 358.87 327.402 370.07 418.343C372.465 437.792 375.599 457.249 377.731 476.742C377.373 476.546 377.017 476.346 376.659 476.15C374.403 474.915 372.317 476.944 372.347 478.883C371.223 480.17 370.117 481.47 369.047 482.804C367.481 484.758 367.066 486.764 366.502 489.171C366.425 489.51 366.78 489.81 367.094 489.626C367.478 489.402 367.86 489.19 368.24 488.981C368.318 489.05 368.395 489.12 368.511 489.169C375.765 492.266 382.442 496.39 389.554 499.761C389.692 499.826 389.843 499.658 389.723 499.541C384.197 494.19 377.344 490.777 370.343 487.732C371.044 487.258 371.702 486.722 372.282 486.036C373.393 484.721 374.555 483.448 375.732 482.194C376.639 482.69 377.536 483.197 378.436 483.7C378.503 484.406 378.583 485.111 378.648 485.817C378.659 485.944 378.855 485.947 378.849 485.817C378.814 485.167 378.772 484.518 378.736 483.869C387.905 489.011 396.812 494.534 405.756 500.077C404.324 502.691 402.807 505.24 401.188 507.744C400.042 506.725 398.869 505.526 397.389 505.053C397.03 504.937 396.822 505.338 396.949 505.626C397.594 507.086 399.01 508.144 400.146 509.208C400.173 509.233 400.203 509.239 400.232 509.26C399.083 511.233 396.656 516.005 394.706 514.718V514.718ZM389.523 515.178C385.306 520.712 381.669 526.615 377.081 531.886C372.558 537.085 364.934 539.833 358.481 542.621C358.714 539.473 354.956 536.981 352.081 537.016C351.899 531.862 352.006 526.735 354.308 521.941C354.988 520.525 355.787 519.137 356.644 517.768C357.422 517.405 358.219 517.14 359.065 516.953C359.64 519.278 359.655 521.504 359.013 523.889C358.791 524.713 359.552 525.432 360.359 525.236C362.524 524.708 364.685 524.393 366.898 524.253C367.335 526.086 367.176 527.774 366.306 529.597C365.996 530.246 366.349 531.338 367.243 531.228C368.742 531.043 370.004 530.694 371.421 530.148C371.787 530.005 371.911 529.352 371.421 529.275C371.17 529.237 370.935 529.205 370.698 529.174C371.732 526.968 372.91 524.863 374.276 522.842C375.189 521.49 376.257 520.259 377.26 518.974C377.974 518.059 378.374 516.803 379.037 515.812C379.131 515.671 378.947 515.498 378.808 515.584C376.5 517.006 374.944 518.065 373.294 520.28C371.827 522.253 370.538 524.314 369.41 526.481C369.496 525.246 369.353 523.988 368.957 522.669C368.81 522.18 368.333 521.748 367.794 521.784C365.637 521.927 363.534 522.237 361.442 522.715C361.469 522.513 361.499 522.31 361.518 522.109C361.864 522.379 362.342 522.437 362.704 521.997C364.462 519.867 366.22 517.738 367.978 515.607C369.629 513.607 370.672 511.436 372.149 509.361C372.242 509.229 372.038 509.08 371.93 509.192C370.196 510.974 368.278 512.352 366.652 514.283C364.961 516.291 363.271 518.299 361.58 520.308C361.544 518.734 361.263 517.175 360.708 515.588C360.524 515.063 360.07 514.818 359.53 514.919C359.113 514.996 358.72 515.095 358.332 515.202C361.089 511.223 364.259 507.399 366.927 503.608C367.216 503.194 367.273 502.79 367.185 502.431C367.432 502.514 367.672 502.591 367.91 502.666C371.086 504.672 374.694 506.135 377.951 507.941C381.939 510.154 385.802 512.569 389.554 515.149C389.546 515.161 389.533 515.165 389.523 515.178V515.178ZM352.171 539.33C353.146 539.323 354.045 539.602 354.834 540.227C355.874 541.05 356.025 542.105 356.623 543.184C356.66 543.252 356.711 543.318 356.77 543.377C356.567 543.47 356.361 543.561 356.161 543.654C351.714 545.719 352.277 542.892 352.171 539.33V539.33ZM273.856 203.17C273.811 202.34 273.457 201.561 272.922 200.961C272.879 200.733 272.839 200.503 272.82 200.263C272.162 191.76 274.934 181.996 275.951 173.533C278.103 155.648 280.253 137.762 282.405 119.876C284.455 120.369 286.5 120.882 288.546 121.391C289.778 122.977 292.111 123.572 293.608 122.638C301.913 124.764 310.175 127.052 318.406 129.448C318.8 130.82 320.695 131.354 321.765 130.42C326.574 131.843 331.367 133.315 336.148 134.83C331.14 147.38 325.647 159.708 319.7 171.844C313.565 184.365 305.493 196.181 299.65 208.8C293.955 208.77 278.09 209.281 273.856 203.17V203.17ZM302.945 61.4624C304.132 52.7193 305.207 43.9933 306.109 35.2174C306.241 33.9467 306.331 32.4145 306.487 30.8551C306.601 30.9709 306.713 31.0909 306.845 31.1681C309.693 32.8361 314.162 33.132 317.371 33.6222C318.595 33.808 319.953 34.0282 321.366 34.2154C321.339 34.3269 321.309 34.437 321.298 34.5585C320.584 41.4806 319.757 48.3842 318.8 55.2763C317.8 62.4743 318.229 69.7367 317.219 76.9562C317.193 77.142 317.467 77.2306 317.509 77.0362C319.079 70.0998 321.688 63.4077 322.883 56.4012C324.11 49.196 324.838 41.8694 325.616 34.6056C329.189 34.75 332.725 34.314 335.247 32.3316C335.688 31.9843 335.553 31.1453 335.064 30.9109C331.144 29.037 326.325 30.2248 322.044 30.2019C319.252 30.1862 316.472 29.8874 313.706 29.5487C309.623 29.0484 308.693 28.6897 307.443 25.7768C307.573 25.3966 307.717 25.0321 307.883 24.6947C310.82 18.7331 318.306 18.8203 323.883 19.1705C328.486 19.4592 333.227 20.3425 336.897 23.3155C341.635 27.1546 338.364 37.0897 337.56 42.0638C335.942 52.0647 334.074 62.0241 332.064 71.955C328.546 89.3397 324.16 106.491 319.645 123.633C311.598 121.293 303.524 119.055 295.406 116.976C297.919 98.4702 300.431 79.9663 302.945 61.4624V61.4624ZM420.705 447.234C414.296 443.877 405.612 443.346 399.952 448.043C396.258 451.107 393.488 456.193 390.753 460.043C386.705 465.742 382.988 471.668 379.432 477.683C379.07 477.483 378.708 477.281 378.346 477.082C372.993 384.104 361.414 291.56 350.719 199.064C348.171 177.032 345.56 155.005 343.208 132.952C343.1 131.933 342.602 131.18 341.934 130.683C341.613 130.42 341.253 130.214 340.879 130.094C335.173 128.257 329.442 126.508 323.698 124.805C329.794 103.32 334.493 81.3928 338.506 59.44C340.379 49.1961 343.709 37.6644 342.881 27.2061C342.297 19.8437 334.394 17.1137 328.327 15.9059C321.223 14.4909 313.452 14.2708 307.398 18.7002C300.157 24.0001 299.514 34.7242 298.17 42.6798C294.11 66.7051 291.419 91.0349 288.191 115.196C286.01 114.659 283.834 114.101 281.647 113.582C280.561 112.775 279.09 112.679 277.981 114.073C238.099 164.28 197.978 214.322 158.674 264.984C134.44 296.218 111.21 328.132 88.2295 360.242C88.1194 360.309 88.0063 360.372 87.9033 360.486C81.9822 367.108 76.5847 374.298 71.2301 381.467C70.3288 380.418 69.2044 379.469 68.0742 378.616C70.1786 375.645 72.2586 372.657 74.3602 369.677C76.7506 366.288 71.1643 363.06 68.811 366.436C63.8426 373.569 58.7355 380.591 54.3437 388.092C52.8573 390.63 56.5553 393.678 58.5137 391.305C60.9529 388.351 63.2475 385.293 65.495 382.202C65.9041 382.529 66.3089 382.863 66.7038 383.215C67.3532 383.795 67.9355 384.436 68.5635 385.03C67.0886 386.998 65.6122 388.961 64.123 390.899C61.8956 393.799 58.2276 397.35 56.7227 401.05C55.5882 401.123 54.5783 401.879 54.7256 403.346C57.2591 428.5 57.6555 453.812 57.0546 479.075C57.006 481.103 59.8842 481.36 60.4779 479.536C66.5807 460.804 74.1799 442.472 79.483 423.509C79.536 423.32 79.257 423.249 79.1926 423.429C73.7307 438.529 67.4248 453.39 61.3134 468.278C62.4421 448.506 61.8413 428.762 60.0717 409.011C60.7326 409.566 61.342 410.058 61.774 410.465C66.648 415.067 71.5104 421.312 77.6662 424.112C78.5217 424.501 79.4473 423.699 78.9737 422.806C77.5131 420.053 67.914 412.373 63.0501 406.903C67.4462 400.834 71.9339 394.835 76.5203 388.909C80.669 383.551 85.5472 378.537 88.683 372.5C88.8218 372.234 88.507 372.024 88.2881 372.195C82.387 376.823 78.0038 383.472 73.4074 389.35C69.3617 394.521 65.4277 399.778 61.5451 405.071C60.4565 403.59 59.9457 402.392 60.3921 401.685C62.877 397.751 65.7796 394.041 68.5177 390.283C69.6665 388.705 70.8138 387.114 71.9611 385.522C72.0569 385.412 72.1428 385.29 72.2186 385.163C77.8222 377.383 83.4743 369.512 89.7531 362.334C89.9619 362.094 90.0392 361.835 90.0621 361.58C114.416 330.879 139.168 300.458 163.263 269.569C200.645 221.646 238.465 174.054 276.152 126.369C275.469 131.783 274.788 137.197 274.1 142.612C267.186 151.749 260.271 160.888 253.356 170.026C246.166 179.527 237.263 188.954 231.677 199.48C231.514 199.787 231.896 200.073 232.152 199.844C240.448 192.426 246.765 182.014 253.494 173.199C260.181 164.44 266.867 155.681 273.555 146.922C273.169 149.971 272.783 153.02 272.399 156.07C272.355 156.127 272.308 156.177 272.268 156.242C266.123 166.137 259.011 175.48 253.459 185.728C253.293 186.036 253.678 186.32 253.932 186.093C260.75 180.025 266.219 172.693 271.275 165.12C270.224 173.595 269.188 182.069 268.208 190.551C267.866 193.498 266.949 198.191 267.401 202.264C237.042 238.669 206.085 274.584 175.167 310.516C159.513 328.708 143.435 346.526 127.28 364.275C119.193 373.16 111.44 382.327 103.478 391.328C96.3408 399.396 87.2982 407.482 81.7547 416.704C81.5545 417.035 81.9651 417.489 82.3055 417.254C91.1321 411.165 98.6011 401.61 106.07 393.918C114.425 385.313 122.901 376.833 130.991 367.984C147.176 350.278 163.157 332.386 179.274 314.619C210.593 280.094 240.748 244.599 270.432 208.667C270.777 208.936 271.152 209.179 271.57 209.388C279.73 213.457 290.482 213.839 299.484 213.826C300.327 214.622 301.573 214.836 302.54 213.644C302.563 213.617 302.583 213.586 302.606 213.558C311.671 259.529 319.846 305.672 328.625 351.699C333.011 374.686 337.047 397.735 341.201 420.766C343.354 432.701 345.952 444.52 348.42 456.394C350.528 466.537 351.78 478.11 355.211 488.089C354.895 488.268 354.663 488.59 354.686 489.103C354.786 491.435 354.916 498.446 357.637 499.328C359.907 500.066 362.178 500.802 364.448 501.539C364.309 501.645 364.176 501.769 364.06 501.934C359.756 508.053 354.764 513.964 351.975 520.958C348.929 528.589 350.7 538.291 351.182 546.224C351.089 546.178 350.945 546.198 350.79 546.383L350.899 546.926L351.227 546.481C351.321 546.907 351.749 547.124 352.162 546.926C360.324 542.981 369.096 539.57 376.345 534.06C382.074 529.707 387.284 522.259 390.961 516.103C392.351 517.083 393.726 518.089 395.081 519.118C395.68 519.573 396.701 519.363 397.186 518.848C399.501 516.384 401.671 513.827 403.748 511.199C404.268 511.647 404.783 512.098 405.312 512.546C403.87 514.576 402.467 516.627 401.146 518.728C399.37 521.56 403.797 524.098 405.598 521.33C409.275 515.7 412.98 510.149 417.086 504.817C418.716 502.684 415.04 499.85 413.352 501.942C411.292 504.499 409.275 507.099 407.315 509.746C406.828 509.318 406.342 508.889 405.856 508.459C405.856 508.456 405.856 508.454 405.856 508.45C407.773 505.866 409.618 503.217 411.335 500.46C412.122 499.191 411.506 497.775 410.419 496.974C408.76 495.768 407.086 494.594 405.398 493.438C413.037 484.865 420.462 475.849 426.012 465.704C429.975 458.471 427.915 451.019 420.705 447.234" fill="#FDCB6E"/>
<path d="M135.483 617.031C135.426 616.882 135.525 616.749 135.739 616.785C135.611 616.863 136.105 617.009 136.411 617.169C136.152 617.119 135.828 617.074 135.483 617.031ZM134.269 616.901C134.048 616.88 133.861 616.864 133.741 616.853C133.851 616.862 134.003 616.873 134.269 616.892V616.901ZM132.15 613.923L132.105 613.966C132.148 613.894 132.193 613.826 132.265 613.781C132.608 613.77 132.709 613.864 132.743 613.952C132.585 613.937 132.398 613.927 132.15 613.923V613.923ZM347.996 549L347.512 549.261C347.722 549.042 347.849 549.402 347.732 549.607C347.41 550.318 346.886 550.206 346.762 550.128L347.09 549.704C346.143 549.459 345.623 551.241 344.81 551.928L344.74 551.179L344.264 552.287C343.986 552.32 343.647 552.171 343.984 551.762C343.216 552.034 343.615 552.362 342.905 552.537C342.816 552.545 342.823 552.502 342.857 552.441L342.412 553.06C342.44 552.869 342.043 552.82 342.444 552.589C341.213 553.193 341.109 554.328 340.436 554.309L340.496 554.208C339.227 555.568 340.644 554.661 339.923 555.961L338.524 555.735L338.666 556.192C338.512 556.305 338.204 556.524 338.146 556.344C337.8 557.039 338.359 556.412 338.227 556.9C337.292 557.205 336.393 558.658 335.794 558.242C335.746 558.707 336.64 557.895 336.021 558.687C335.333 558.274 335.217 559.495 334.347 559.748C334.309 559.282 335.054 558.949 334.186 559.2C334.197 560.031 332.826 560.103 332.353 560.642C332.647 561.075 331.288 561.772 330.468 562.65C330.436 562.484 328.513 563.757 327.521 564.262L327.494 564.173C327.637 564.725 326.666 565.323 326.066 565.904C325.907 565.628 325.953 565.438 326.228 565.057L325.607 565.522C325.56 565.768 325.417 565.985 325.047 566.334L324.974 565.898C324.154 566.523 323.583 567.532 322.343 568.081C322.491 568.426 323.804 568.319 322.783 569.323C322.625 569.189 322.388 568.939 322.645 568.662C322.561 568.753 322.386 569.043 322.137 569.111L322.408 568.516C321.825 568.74 322.307 568.926 321.89 569.176C321.735 568.936 321.478 569.212 321.408 568.988C321.494 568.894 321.823 568.844 321.913 568.647C321.433 568.916 320.794 569.151 320.494 569.097C320.624 569.203 320.71 569.413 320.401 569.67C319.561 570.274 319.917 569.589 319.34 569.809C319.244 570.115 318.588 570.319 318.811 570.681C318.56 570.852 318.404 570.719 318.244 570.689C317.908 571.148 316.218 572.151 316.963 572.185L317.092 572.133L317.031 572.198C315.831 573.574 313.855 573.999 312.494 575.098L312.42 574.975C311.631 575.673 310.524 576.301 310.058 576.962C309.798 577.128 309.311 577.131 309.334 576.916C308.717 577.427 308.737 577.635 307.631 578.021C308.188 577.398 307.287 577.982 308.237 577.44C307.297 577.878 306.972 577.787 306.221 578.688C306.359 578.184 305.321 578.688 304.955 579.031L305.708 578.888C305.261 579.214 304.831 579.432 304.394 579.653L304.381 579.104C302.279 579.663 301.608 581.914 299.738 581.855C299.415 582.423 300.849 581.503 300.605 582.088C299.729 582.51 298.507 582.381 298.244 582.527C296.955 582.929 297.492 583.736 296.186 584.243C296.422 584.308 296.785 584.63 295.948 585.272C295.064 585.682 294.565 585.21 295.039 584.795C295.236 584.671 295.359 584.665 295.378 584.72C295.624 584.515 295.951 584.253 295.526 584.274L295.496 584.485C294.994 584.561 293.832 585.217 293.976 584.818C293.411 585.314 293.832 585.217 294.349 585.035C293.141 585.405 292.652 585.98 291.428 586.395C291.652 586.387 291.911 586.481 291.729 586.571C289.956 587.225 291.138 587.232 290.034 587.871C289.271 587.964 289.986 587.198 288.941 587.969C288.165 588.163 288.592 587.637 288.806 587.373C287.912 588.192 286.769 588.156 286.151 588.398L286.638 588C286.346 588.238 286.078 588.371 285.805 588.507L286.265 588.658C285.918 588.767 285.645 588.903 285.589 588.771C285.355 589.14 286.089 589.155 285.562 589.764C285.06 589.829 284.332 590.587 283.983 590.238C285.416 589.733 283.646 589.91 284.759 589.277C284.562 589.436 284.295 589.573 283.939 589.667C283.869 589.644 283.946 589.56 284.025 589.495C282.543 589.732 283.64 590.238 282.276 590.857C282.34 590.545 281.758 590.561 281.559 590.713C282.108 590.466 282 590.98 281.578 591.391C280.623 591.613 280.692 591.964 280.225 592.155L280.785 591.999C280.713 592.314 280.262 592.484 279.686 592.84C279.553 592.682 280.183 592.46 279.93 592.48C279.436 593.202 278.215 592.759 277.395 593.471C276.89 593.514 277.16 593.051 276.732 593.118C275.806 593.904 275.439 593.293 274.427 594.026C274.885 594.206 274.909 594.104 274.248 594.748L276.002 593.744L275.012 594.706C275.573 594.474 276.106 594.01 276.463 593.922C276.009 594.419 276.032 594.315 276.413 594.465C275.445 594.313 275.013 595.382 273.992 595.434L273.689 594.638C272.217 594.846 271.499 596.037 269.693 596.567L270.302 596.47C270.197 596.882 269.255 596.964 268.747 597.328C268.693 597.04 268.309 597.097 268.002 597.019C268.107 597.206 266.717 597.492 266.763 598.083L265.849 598.032C264.386 598.429 264.526 599.409 263.133 599.841C263.434 599.393 262.747 599.441 263.579 598.884C263.124 599.055 262.7 599.162 262.762 599.35C262.436 599.285 261.637 600.192 261.129 600.098C260.98 600.289 261.019 600.594 260.501 600.767C260.426 600.734 260.456 600.634 260.456 600.634C260.504 600.774 259.717 601.104 260.273 601.242C258.564 600.894 256.339 602.674 254.863 602.378C253.893 602.814 252.716 603.321 251.813 603.654C251.846 603.554 251.773 603.518 251.953 603.487C250.61 603.638 251.423 604.51 249.89 604.679C249.017 604.468 250.583 604.204 250.07 604.179C249.593 603.346 248.37 604.841 247.24 604.619L247.458 604.493C246.627 604.418 245.754 605.393 244.523 605.705C244.523 605.705 244.558 605.607 244.49 605.566C243.801 606.3 242.258 606.885 241.114 607.335C241.383 606.881 241.598 607.001 241.274 606.703C240.761 606.899 241.59 607.237 240.563 607.628C240.167 607.528 239.36 607.567 239.157 607.211L240.143 606.917C239.5 606.56 238.864 607.287 238.317 607.345L238.327 607.108C236.827 607.596 236.947 608.151 235.301 608.561L235.512 608.68C234.755 609.473 234.682 608.572 233.885 609.197L233.477 608.709C232.917 608.983 231.524 609.743 230.48 610.103C230.99 609.547 232.185 609.038 232.897 608.609C232.308 608.746 230.907 609.129 230.664 609.477C230.89 609.366 231.157 609.16 231.411 609.188C230.792 609.797 229.889 610.24 228.709 610.513C228.675 609.385 225.588 610.989 224.544 610.292C222.538 611.122 220.366 610.971 217.951 611.536C218.972 612.204 217.246 611.705 217.555 612.543C217.002 612.695 216.781 612.719 216.716 612.673L216.878 612.689C216.824 612.682 216.785 612.676 216.785 612.67V612.672L214.928 612.451C214.473 612.267 215.418 612.166 215.331 611.98C214.072 612.127 214.733 611.701 213.869 611.611C214.092 611.893 213.508 612.131 212.778 612.134L213.843 612.364C212.178 613.127 212.215 611.892 210.535 612.652L211.046 612.283C210.172 612.611 207.726 612.842 206.935 613.643C206.76 613.565 206.513 613.354 206.903 613.235C204.728 613.429 202.182 614.651 200.443 614.45L200.58 614.213C200.185 614.332 199.926 614.716 199.392 614.548C199.407 614.457 199.53 614.317 199.34 614.325C199.136 614.421 198.307 614.813 197.755 614.745L198.187 614.455C196.039 614.395 194.996 615.385 193.226 615.719C193.17 615.079 191.486 615.071 190.643 615.024L190.664 614.931C188.187 615.03 186.504 615.758 184.223 616.171C182.76 615.626 179.377 616.122 177.071 615.83C177.426 615.933 177.031 616.327 176.626 616.406C176.084 616.3 175.15 616.905 175.22 616.318L175.411 616.323C174.99 615.759 173.891 615.977 173.028 615.961L172.901 616.724C170.628 615.626 166.975 617.161 165.743 616.174C165.197 616.37 164.521 616.369 163.978 616.536L164.014 616.128C162.507 615.98 161.755 615.907 159.89 615.951L160.277 615.67C159.23 615.613 158.912 616.81 157.938 616.807L157.668 616.187C155.828 616.172 154.005 615.48 152.162 615.928C152.198 615.842 152.262 615.668 152.559 615.662C151.698 615.592 149.254 615.041 149.508 615.896C149.525 615.343 147.621 615.74 146.611 615.885L146.796 615.499C145.922 615.931 145.884 616.068 144.704 616.096C144.432 616.018 144.489 615.752 144.848 615.891C143.946 615.59 144.096 616.2 142.998 615.878L143.438 615.662C142.494 615.54 142.556 615.684 142.005 615.931C141.392 616.034 140.215 615.655 140.113 615.28C139.963 615.488 139.412 615.732 138.863 615.573C138.803 615.43 139.016 615.365 139.123 615.333C137.571 614.91 136.719 615.503 135.679 614.979C135.672 614.845 135.611 614.768 135.525 614.716C136.776 614.892 137.783 615.048 137.685 615.064C137.728 614.696 136.725 614.498 137.588 614.095C136.746 614.265 135.285 614.684 134.319 614.381C134.276 614.339 134.233 614.299 134.205 614.236L134.312 614.209C134.091 614.141 133.882 614.15 133.682 614.186C133.375 614.083 133.182 614.012 132.881 613.966C132.805 613.647 131.745 613.65 131.243 613.567C131.229 613.975 130.576 613.823 131.149 614.238C131.073 614.197 131.252 614.202 131.589 614.229C131.666 614.228 131.756 614.234 131.81 614.216L131.77 614.248C132.103 614.284 132.536 614.332 133.029 614.387C132.603 614.538 132.162 614.655 131.635 614.358C131.339 614.582 131.016 614.81 130.838 614.913C130.222 614.271 128.939 613.773 128.809 613.384C127.243 613.351 125.182 612.925 124.089 613.515C123.636 613.539 123.623 613.215 123.482 613.069C123.746 613.036 124.043 613.098 124.197 613.013C123.293 613.059 121.603 612.653 121.3 613.143C120.243 612.715 122.003 612.776 120.48 612.584L120.713 612.465C117.93 611.025 115.647 612.815 112.589 611.072C112.802 611.184 112.909 611.239 112.936 611.335C111.121 610.708 109.2 610.314 107.276 609.941C105.357 609.55 103.436 609.164 101.731 608.255C100.743 607.817 100.544 608.114 99.847 608.187L99.7384 607.703L98.5298 607.887C96.9069 607.794 96.1769 606.152 94.0754 606.206L94.2383 606.568C93.5683 606.293 92.0154 606.035 92.2283 605.748C92.1426 605.777 91.914 605.968 91.6911 605.735L91.7369 605.51L89.9353 605.343C88.681 604.766 90.414 604.545 88.5282 603.892C87.7954 603.749 86.3067 603.876 86.5239 604.106C86.8067 604.208 87.2096 604.476 87.1596 604.7L86.4725 604.603C86.1439 605.202 85.4196 605.692 86.8782 606.654L88.1225 606.624L88.3825 607.049L87.4353 606.766C87.8739 607.229 88.2968 607.081 88.7325 607.026C88.7696 607.219 88.8896 607.385 89.0925 607.518L90.3825 607.258C90.4383 607.553 89.7339 607.598 90.4282 607.973C91.0311 607.855 90.1111 607.252 91.0197 607.339C91.464 607.803 91.2354 607.991 91.9382 607.943C91.9768 608.137 91.8111 608.199 91.5397 608.192C92.1597 608.173 93.0454 608.583 93.4369 608.333C93.8812 608.889 95.3569 608.817 95.1255 609.407C95.3455 609.311 96.2583 609.207 96.784 609.327C95.6283 609.794 98.7141 609.917 98.2456 610.633C99.1299 610.171 100.864 611.054 102.203 611.036C102.12 611.07 101.956 611.137 101.854 611.072C102.541 611.319 102.69 611.592 103.113 611.824C103.344 611.298 104.474 611.438 105.15 611.243C105.883 611.983 104.466 611.762 104.61 612.335C104.677 611.88 106.224 612.256 106.02 611.814C106.601 612.302 106.551 612.111 106.783 612.65C107.063 611.99 107.429 612.683 108.076 612.393C108.954 612.965 108.173 613.098 109.274 613.144C109.727 613.476 108.734 613.494 108.734 613.494C109.806 613.765 109.354 613.107 109.65 612.864C110.961 613.026 110.154 613.39 110.532 613.763C111.362 613.828 112.083 613.475 112.679 613.615C112.704 613.711 112.814 613.765 112.654 613.845C113.593 613.605 115.186 614.343 116.282 614.024C116.346 614.085 116.374 614.137 116.386 614.18C116.277 613.885 116.306 613.614 116.376 613.432C116.86 613.521 117.336 613.283 117.45 613.663C117.157 613.592 117.104 613.725 116.946 613.804L117.48 613.76C117.84 614.343 116.757 613.787 116.684 614.151C117.704 614.195 118.932 614.021 119.66 614.316C119.729 614.83 117.862 614.115 118.79 614.751L117.654 614.327C118.403 615.271 116.952 614.128 117.617 615.109C119.139 615.555 119.389 615.239 120.912 615.652C121.309 615.443 120.867 615.236 121.265 615.027C123.545 614.914 122.787 616.534 124.516 616.162C124.99 615.909 125.25 615.324 126.349 615.843L125.869 616.324C127.366 616.632 126.85 615.681 128.368 616.314C128.055 616.483 127.158 616.297 127.375 616.401C128.33 617.005 128.145 616.211 128.928 616.343L129.018 616.856C130.639 617 132.459 616.879 134.249 617.026C134.132 617.158 133.808 617.27 134.205 617.474C135.345 617.502 136.542 617.675 137.722 617.915C138.905 618.13 140.075 618.381 141.151 618.636L142.024 618.295C142.216 618.318 142.365 618.52 142.148 618.582C142.981 618.825 142.216 618.318 142.641 618.192C143.125 618.209 143.255 618.497 142.938 618.594C144.471 618.379 147.261 618.26 148.809 618.777L148.492 618.883C149.712 619.133 149.939 618.104 151.054 618.569L150.829 618.631C153.489 618.988 156.452 618.795 158.471 619.455C158.878 618.857 161.112 619.804 161.307 618.958C162.822 619.423 162.382 619.563 164.533 619.908C165.107 619.955 165.395 619.375 166.105 619.286L166.12 619.731L167.087 619.258L167.6 619.789L168.267 619.672C168.001 619.646 167.701 619.474 167.743 619.347C168.781 619.138 170.28 619.644 170.31 619.871L172.768 619.482C172.717 619.661 172.305 619.725 171.981 619.842C173.29 619.381 172.228 620.309 173.428 619.887C173.264 619.786 173.51 619.621 173.535 619.531C174.141 619.783 175.51 619.729 176.518 619.578L176.333 619.891C178.166 619.9 180.183 619.596 182.234 619.524C181.491 619.41 181.634 618.871 182.231 618.797L182.496 619.258C182.869 618.948 181.86 619.111 182.636 618.715C183.401 618.714 183.18 619.212 182.749 619.397L183.669 619.167C183.731 619.303 183.519 619.393 183.471 619.576C183.834 619.257 185.107 619.932 185.626 619.386L185.687 619.523C187.737 619.38 188.654 619.151 190.32 619.008C190.32 618.601 190.979 618.646 191.446 618.28C192.676 618.282 194.062 618.458 195.53 618.269C196.543 617.96 195.797 617.895 196.237 617.607C196.35 617.967 197.816 617.778 197.082 618.123C198.839 617.86 199.336 617.851 201.522 617.24C201.262 617.123 200.983 617.094 201.107 616.95C201.503 616.834 202.043 616.977 202.007 617.162L201.906 617.214C204.32 616.313 207.818 617.503 209.693 616.431L209.588 616.487L211.576 615.739C212.529 615.641 211.055 616.11 211.789 616.217C213.902 615.228 215.303 615.704 217.055 614.986C218.668 615.83 222.018 613.906 224.051 614.212L223.889 613.982C224.327 613.635 224.511 614.005 224.884 613.988C224.792 613.803 224.305 613.871 224.581 613.673C226.628 613.124 228.761 612.676 230.937 612.326C233.107 611.955 235.328 611.718 237.447 611.223C238.998 610.867 237.978 609.698 240.064 609.761L239.64 610.372C241.111 609.67 242.693 609.248 244.265 608.821C245.826 608.353 247.384 607.898 248.81 607.202C248.664 607.362 248.7 607.501 248.407 607.591C249.141 607.725 250.754 606.88 250.68 606.607C251.156 606.493 250.864 606.818 251.194 606.865C251.891 606.859 252.657 605.959 253.093 606.16C253.167 606.193 252.95 606.328 252.844 606.393C253.201 606.092 254.766 605.773 254.249 605.529C255.421 605.324 256.32 604.623 257.283 604.541C257.717 603.917 259.259 604.083 259.234 603.422C259.367 604.062 261.366 603.259 261.947 602.681C261.781 602.956 262.621 602.641 262.441 603.002C263.233 602.688 263.919 602.297 263.664 602.034C265.4 602.204 266.377 600.321 267.557 600.939C269.803 599.741 271.837 598.548 273.875 597.544C274.049 598.177 271.59 598.578 271.936 599.173C273.823 598.085 274.749 597.089 276.776 596.404C277.319 596.271 276.598 596.785 276.469 596.96C278.35 595.889 280.282 595.29 281.882 594.182C281.902 594.238 281.742 594.385 281.586 594.513C281.919 594.335 282.422 594.232 282.261 593.981L281.96 594.208C281.238 594.069 282.946 592.764 282.912 592.53C282.686 593.568 284.712 591.934 284.242 593.329C284.443 593.175 284.668 592.918 284.532 592.763C284.89 592.66 285.046 592.715 284.802 593.077C285.962 592.364 285.392 592.285 286.489 591.742C286.546 591.873 286.349 592.033 286.308 592.243C286.743 591.713 287.178 591.181 288.152 590.826C288.135 590.931 288.291 590.979 288.015 591.115C289.583 590.277 290.388 589.089 292.245 588.455C292.013 589.268 292.928 588.341 293.266 588.773C293.266 588.773 293.481 588.619 293.696 588.465C293.908 588.303 294.121 588.143 294.121 588.143L293.632 588.111C294.442 587.679 294.972 586.944 295.745 586.721L295.249 587.244L296.711 586.33L295.762 586.616C296.446 585.926 295.358 586.061 296.496 585.61C296.305 585.778 297.302 585.177 297.871 585.227L297.868 585.23C298.185 584.862 298.508 584.48 299.165 584.272C299.402 584.34 299.325 584.863 299.481 584.908C299.654 584.291 301.317 583.787 301.559 583.062C301.452 583.255 301.581 583.507 301.664 583.527L301.808 583.015C302.231 582.901 302.312 582.92 302.362 583.151C303.495 582.559 301.678 582.762 303.128 582.247C303.039 582.333 303.115 582.352 302.929 582.527C304.317 581.884 305.345 580.828 306.639 580.272C307.269 580.527 305.654 581.009 306.291 581.162C307.137 580.604 307.954 579.932 308.777 579.289C309.588 578.628 310.395 577.976 311.252 577.506L310.914 577.651C310.741 576.856 312.338 577.19 312.981 576.352C312.807 576.53 312.938 576.881 312.948 576.774C314.138 576.15 315.165 575.156 316.721 573.834L316.621 574.14C317.365 573.84 318.387 573.046 319.138 572.636C319.238 572.33 319.657 572.08 319.254 572.011C322.035 571.428 323.063 568.718 325.443 568.059C325.22 568.228 325.008 568.595 325.187 568.465L326.677 567.133C326.357 566.957 326.35 567.124 325.866 567.162C325.951 566.853 326.311 566.396 326.706 566.103C326.12 566.812 327.024 566.531 327.443 566.451C327.331 566.408 327.371 566.237 327.284 566.174C328.466 566.034 327.03 565.529 328.399 565.009L328.443 565.194C328.814 564.807 329.068 564.33 329.556 564.031C329.976 564.199 329.21 564.511 329.37 564.787C329.997 564.283 330.214 563.276 331.004 563.118C330.806 563.422 330.417 563.719 330.206 564.004C331.114 563.898 331.11 563.738 331.614 563.43L331.563 563.458L332.75 562.771L332.404 562.89C332.579 561.467 333.891 561.467 334.543 560.106C333.901 561.415 334.596 560.523 334.786 560.929C335.13 560.808 335.626 560.587 335.584 560.776C335.867 560.1 336.594 560.324 336.98 559.357C337.099 559.443 337.523 558.941 337.632 559.305C338.213 558.699 337.324 559.239 337.269 559.057C337.982 557.903 339.939 557.553 340.93 555.854C341.963 554.607 341.88 554.055 342.842 552.917C343.366 552.764 342.866 553.57 342.866 553.57C343.609 553.203 344.046 552.782 344.51 552.163C344.477 552.359 344.662 552.33 344.935 552.291C345.357 551.85 344.896 551.631 345.622 551.242C345.624 551.453 345.66 551.759 345.547 552.077C345.99 551.492 346.336 550.816 346.796 550.218C347.103 550.267 346.713 550.799 346.627 551.096C347.167 550.446 348.067 549.461 347.996 549" fill="#FDCB6E"/>
</svg>
